<?xml version="1.0" encoding="UTF-8"?>
<svg width="85px" height="20px" viewBox="0 0 85 20" version="1.1" xmlns="http://www.w3.org/2000/svg" xmlns:xlink="http://www.w3.org/1999/xlink">
    <title>编组</title>
    <defs>
        <path d="M17.5329559,0.0100957447 L17.5625611,0.0103477973 C18.537635,0.0269619723 19.3228368,0.862815532 19.3228368,1.8917766 L19.3228368,1.8917766 L19.3228368,4.33148936 L1.81944161,4.33148936 L1.78984959,4.33123714 C0.815201308,4.31461213 0.0295158546,3.4782173 0.0295158546,2.44934752 L0.0295158546,2.44934752 L0.0295158546,0.0100957447 L17.5329559,0.0100957447 Z" id="path-1"></path>
        <linearGradient x1="39.0243992%" y1="48.3495379%" x2="39.0243992%" y2="247.184497%" id="linearGradient-3">
            <stop stop-color="#740BFB" offset="0%"></stop>
            <stop stop-color="#12D5FF" offset="100%"></stop>
        </linearGradient>
        <path d="M0.0295607115,0.0100957447 L0.0295607115,2.44939362 C0.0295607115,3.48860993 0.831153906,4.33153546 1.81944161,4.33153546 L1.81944161,4.33153546 L19.3228368,4.33153546 L19.3228368,1.8917766 C19.3228368,0.852421986 18.5216922,0.0100957447 17.5329559,0.0100957447 L17.5329559,0.0100957447 L0.0295607115,0.0100957447 Z" id="path-4"></path>
        <linearGradient x1="-0.0251784187%" y1="49.9927714%" x2="99.9734995%" y2="40.2244379%" id="linearGradient-6">
            <stop stop-color="#740BFB" offset="0%"></stop>
            <stop stop-color="#12D5FF" offset="100%"></stop>
        </linearGradient>
        <path d="M17.8053897,0.0100957447 L17.8354356,0.0103477973 C18.825025,0.0269619723 19.6219159,0.862815532 19.6219159,1.8917766 L19.6219159,1.8917766 L19.6219159,4.33148936 L1.85786265,4.33148936 L1.82781675,4.33123714 C0.838228201,4.31461213 0.0413819444,3.4782173 0.0413819444,2.44934752 L0.0413819444,2.44934752 L0.0413819444,0.0100957447 L17.8053897,0.0100957447 Z" id="path-7"></path>
        <linearGradient x1="49.7561106%" y1="48.3495379%" x2="49.7561106%" y2="247.184497%" id="linearGradient-9">
            <stop stop-color="#13D5FF" offset="0%"></stop>
            <stop stop-color="#3788FD" offset="100%"></stop>
        </linearGradient>
        <path d="M0.0413819444,0.0100957447 L0.0413819444,2.44939362 C0.0413819444,3.48860993 0.854361883,4.33153546 1.85786265,4.33153546 L1.85786265,4.33153546 L19.6219159,4.33153546 L19.6219159,1.8917766 C19.6219159,0.852421986 18.8088449,0.0100957447 17.8053897,0.0100957447 L17.8053897,0.0100957447 L0.0413819444,0.0100957447 Z" id="path-10"></path>
        <linearGradient x1="85.5966919%" y1="47.557515%" x2="7.68901794%" y2="51.801146%" id="linearGradient-12">
            <stop stop-color="#13D5FF" offset="0%"></stop>
            <stop stop-color="#3788FD" offset="100%"></stop>
        </linearGradient>
        <path d="M17.5329559,0.0307438596 L17.5625611,0.0309932184 C18.537635,0.047429834 19.3228368,0.874351719 19.3228368,1.89257193 L19.3228368,1.89257193 L19.3228368,4.30669474 L1.81944161,4.30669474 L1.78984959,4.30644516 C0.815201308,4.28999425 0.0295158546,3.46235796 0.0295158546,2.44422807 L0.0295158546,2.44422807 L0.0295158546,0.0307438596 L17.5329559,0.0307438596 Z" id="path-13"></path>
        <linearGradient x1="39.0243992%" y1="54.5631303%" x2="39.0243992%" y2="253.398089%" id="linearGradient-15">
            <stop stop-color="#740BFB" offset="0%"></stop>
            <stop stop-color="#12D5FF" offset="100%"></stop>
        </linearGradient>
        <path d="M0.0295607115,0.0307438596 L0.0295607115,2.44427368 C0.0295607115,3.47259649 0.831153906,4.30669474 1.81944161,4.30669474 L1.81944161,4.30669474 L19.3228368,4.30669474 L19.3228368,1.89257193 C19.3228368,0.864066667 18.5216922,0.0307438596 17.5329559,0.0307438596 L17.5329559,0.0307438596 L0.0295607115,0.0307438596 Z" id="path-16"></path>
        <linearGradient x1="-0.0251784187%" y1="49.9928917%" x2="99.9734995%" y2="40.4291249%" id="linearGradient-18">
            <stop stop-color="#740BFB" offset="0%"></stop>
            <stop stop-color="#12D5FF" offset="100%"></stop>
        </linearGradient>
        <path d="M35.2618457,0.0125791855 C35.8464236,0.0125791855 36.4007686,0.0760633484 36.9220378,0.203665158 L36.9220378,0.203665158 L36.9601667,0.213128846 C38.1275956,0.506911515 39.1242188,1.12858123 39.9012416,2.10538462 L39.9012416,2.10538462 L39.9219033,2.13239484 C39.9353802,2.15046757 39.9484561,2.16862745 39.962294,2.18660633 L39.962294,2.18660633 L39.9889369,2.22161784 C40.862992,3.37806424 41.2268874,4.64011086 41.2761164,6.00841629 L41.2761164,6.00841629 L41.2760912,6.0145292 L41.2760912,6.0145292 L41.2760974,6.04216205 C41.2761672,6.08634333 41.276421,6.15400452 41.2761164,6.17470588 L41.2761164,6.17470588 L41.2747505,6.23566066 C41.2200396,8.24434802 40.2129202,9.97241855 38.6949491,11.0047511 L38.6949491,11.0047511 L38.6590087,11.0289971 C37.9022819,11.5354497 37.0211162,11.8706759 36.067936,11.9816742 L36.067936,11.9816742 L36.0273751,11.9842658 C35.8233125,11.9972791 35.601822,12.0110181 35.4280815,12.0208597 L35.4280815,12.0208597 L35.4080841,12.0219867 C35.3354973,12.0260605 35.2712427,12.0294721 35.2227234,12.031629 L35.2227234,12.031629 L35.2208833,12.0316861 C35.188242,12.0325591 34.9304239,12.0341739 34.6654923,12.0398636 L34.6301451,12.0406467 L34.6301451,12.0406467 L34.5948285,12.0414798 C34.4478989,12.0450578 34.3047564,12.0499849 34.2027918,12.0568326 L34.2027918,12.0568326 L34.1777235,12.058651 C33.4281888,12.1169586 32.9051713,12.5128532 32.6129927,13.1442986 L32.6129927,13.1442986 L32.6055434,13.1606043 C32.3767786,13.6689312 32.3503904,14.4409729 32.8052649,15.0364253 L32.8052649,15.0364253 L32.8213538,15.0571501 C33.3383475,15.7142773 34.060179,15.7910407 34.5605779,15.7910407 L34.5605779,15.7910407 L39.1813828,15.8030769 L39.5226536,15.8111765 L39.5524335,15.8114176 C40.5332649,15.8273093 41.3232157,16.626819 41.3222338,17.6109955 L41.3222338,17.6109955 L41.3198865,19.9688688 L41.3175999,19.968871 L41.3175999,19.968871 L41.2840283,19.9689036 C41.0128279,19.9691662 39.2462617,19.9708588 37.4571714,19.9721493 L37.2238051,19.9723152 C36.2907974,19.9729685 35.3690899,19.9736294 34.6678607,19.9736294 L34.1157431,19.9736294 C33.722744,19.9736294 33.470978,19.9732253 33.434786,19.9725792 L33.434786,19.9725792 L33.3368305,19.9700567 C30.1110365,19.8604459 27.5587252,17.1470624 27.6163974,13.8638462 L27.6163974,13.8638462 L27.6170291,13.8502376 L27.6170291,13.8502376 L27.6176608,13.8365611 L27.6203795,13.7441892 C27.7326109,10.7018695 30.0685466,8.25427104 33.0070582,7.98723982 L33.0070582,7.98723982 L33.1589447,7.97642534 L33.2242754,7.9724802 C33.289685,7.96884898 33.3553231,7.96621041 33.4211135,7.96502262 L33.4211135,7.96502262 L34.3696143,7.92348416 L34.3980938,7.92337262 C35.3349751,7.91601084 35.9803652,7.54428869 36.3168384,6.81760181 L36.3168384,6.81760181 L36.3242894,6.80126738 C36.5531091,6.29205008 36.5800211,5.51935544 36.1245662,4.92497738 L36.1245662,4.92497738 L36.1084898,4.90423617 C35.5918898,4.24659083 34.8700578,4.17022624 34.3696143,4.17022624 L34.3696143,4.17022624 L27.300929,4.17020449 C27.2884903,4.16878958 26.6647064,4.10042896 26.2952649,4.57742081 L26.2952649,4.57742081 L26.2826923,4.59411568 C26.0012831,4.97859379 25.9618797,5.77197915 25.9918079,6.30963801 L25.9918079,6.30963801 L25.9856259,13.1188688 L25.9913115,13.2805882 L25.9828734,13.561267 L25.9828734,18.2341629 L25.9826325,18.2638807 C25.9667534,19.2420919 25.1678784,19.9736294 24.1835648,19.9736294 L24.1835648,19.9736294 L1.83725764,19.9736294 L1.80748842,19.9733513 C0.827008975,19.9586233 0.0371368268,19.217309 0.0371368268,18.2341629 L0.0371368268,18.2341629 L0.0178238719,15.8421267 L8.22267103,15.8421267 L19.544575,15.8739819 L19.5672916,15.8739954 C19.6659245,15.8741097 19.767048,15.8749094 19.8693246,15.8748977 L19.9166061,15.8748293 C19.9244984,15.8748064 19.9323963,15.8747774 19.9402992,15.8747416 L19.9877716,15.874439 C20.605565,15.8692951 21.2463442,15.8142147 21.6211689,15.3858824 L21.6211689,15.3858824 L21.631796,15.3732862 C21.8966693,15.0473595 21.8328636,14.2065493 21.8583392,13.7207692 L21.8583392,13.7207692 L21.8584142,13.7194413 C21.8610848,13.6746417 21.8829117,13.517238 21.8720116,8.54466063 L21.8720116,8.54466063 L21.864837,8.54466063 L21.864837,8.38199095 L21.8644083,8.37868778 L21.8644083,8.37868778 L21.8639796,8.37538462 L21.8639796,4.1459276 L21.8635735,4.1459276 L21.8635735,1.81475113 L21.8638145,1.78501193 C21.8797015,0.805525715 22.6789678,0.0168778281 23.6626114,0.0168778281 L23.6626114,0.0168778281 L27.8432344,0.0168778281 L27.8655621,0.0159580034 C27.8882876,0.0146662896 27.9119014,0.0125791855 27.9336623,0.0125791855 L27.9336623,0.0125791855 L35.2618457,0.0125791855 Z" id="path-19"></path>
        <linearGradient x1="49.6341594%" y1="42.3301202%" x2="49.6341594%" y2="241.165079%" id="linearGradient-21">
            <stop stop-color="#740BFB" offset="0%"></stop>
            <stop stop-color="#12D5FF" offset="100%"></stop>
        </linearGradient>
        <path d="M35.0301354,0.0125339367 L29.3078603,0.0125339367 L27.9336623,0.0125339367 C27.9046929,0.0125339367 27.8723843,0.0162895928 27.8431892,0.0168778281 L27.8431892,0.0168778281 L23.6626114,0.0168778281 C22.669032,0.0168778281 21.8635284,0.82158371 21.8635284,1.81475113 L21.8635284,1.81475113 L21.8635284,4.1459276 L21.8639345,4.1459276 L21.8639345,8.37538462 C21.8639345,8.37773756 21.864837,8.37963801 21.864837,8.38199095 L21.864837,8.38199095 L21.864837,8.54466063 L21.8719665,8.54466063 C21.8830218,13.5674661 21.8605953,13.6773303 21.858294,13.7207692 L21.858294,13.7207692 C21.8325284,14.2129412 21.8983639,15.0695023 21.6211237,15.3858824 L21.6211237,15.3858824 C21.1550408,15.918552 20.2776099,15.8739819 19.5445298,15.8739819 L19.5445298,15.8739819 L8.22267103,15.8421719 L0.0178238719,15.8421719 L0.0371368268,18.2341629 C0.0371368268,19.2271946 0.843001456,19.9736934 1.83725764,19.9736934 L1.83725764,19.9736934 L8.27447307,19.9736934 L18.6442213,19.9736934 L24.1835648,19.9736934 C25.177821,19.9736934 25.9828282,19.2271946 25.9828282,18.2341629 L25.9828282,18.2341629 L25.9828282,18.0024887 L25.9828282,15.9029864 L25.9828282,13.5612217 L25.9912664,13.2805882 L25.9855808,13.1188688 L25.991853,6.30968326 C25.9614396,5.76402715 26.0024571,4.95520362 26.29531,4.57746606 L26.29531,4.57746606 C26.6684381,4.09565611 27.3011179,4.17022624 27.3011179,4.17022624 L27.3011179,4.17022624 L29.7414993,4.17022624 L34.3696143,4.17022624 C34.8752707,4.17022624 35.6069971,4.24819005 36.1245662,4.92497738 L36.1245662,4.92497738 C36.5849185,5.52574661 36.5524294,6.30868778 36.3168384,6.81760181 L36.3168384,6.81760181 C35.9770116,7.55162896 35.3218603,7.92352941 34.3696143,7.92352941 L34.3696143,7.92352941 L33.4210684,7.96506787 C33.3333479,7.96665158 33.2459432,7.97081448 33.1589447,7.97642534 L33.1589447,7.97642534 L33.0070131,7.98723982 C30.0388646,8.25696833 27.6854818,10.7515385 27.6176157,13.8365611 L27.6176157,13.8365611 C27.617345,13.8457919 27.6166681,13.8547511 27.6163974,13.8638914 L27.6163974,13.8638914 C27.5581426,17.1802262 30.1629098,19.9152036 33.4347409,19.9726244 L33.4347409,19.9726244 C33.6476346,19.9764253 41.3198865,19.9688688 41.3198865,19.9688688 L41.3198865,19.9688688 L41.3222338,17.6110407 C41.3232256,16.6168778 40.5171805,15.8111765 39.5226987,15.8111765 L39.5226987,15.8111765 L39.1813377,15.8030769 L34.5605779,15.791086 C34.0550116,15.791086 33.3232853,15.7127149 32.8052649,15.0364253 L32.8052649,15.0364253 C32.3454993,14.4345701 32.3774017,13.6523529 32.6129927,13.1442986 L32.6129927,13.1442986 C32.9083726,12.5058371 33.4397948,12.10819 34.2027918,12.0568778 L34.2027918,12.0568778 C34.5086856,12.0363348 35.1851354,12.0330317 35.2226783,12.031629 L35.2226783,12.031629 C35.2756536,12.029276 35.3472649,12.0254299 35.4280815,12.0208597 L35.4280815,12.0208597 C35.6134047,12.0104072 35.8531019,11.9954299 36.067936,11.9816742 L36.067936,11.9816742 C37.036246,11.868914 37.9302373,11.5247511 38.6949491,11.0047511 L38.6949491,11.0047511 C40.2282533,9.9620362 41.2403333,8.20936652 41.2761164,6.17470588 L41.2761164,6.17470588 C41.2765226,6.14714932 41.2759811,6.0360181 41.2761164,6.00846154 L41.2761164,6.00846154 C41.226345,4.62628959 40.8555633,3.35253394 39.962294,2.18665158 L39.962294,2.18665158 C39.9415371,2.15963801 39.9224949,2.13221719 39.9012416,2.10538462 L39.9012416,2.10538462 C39.1157278,1.1179638 38.1059039,0.493484163 36.9219927,0.203665158 L36.9219927,0.203665158 C36.4007686,0.0760633484 35.8464236,0.0125339367 35.2618006,0.0125339367 L35.2618006,0.0125339367 L35.0301354,0.0125339367 Z" id="path-22"></path>
        <linearGradient x1="-68.8859239%" y1="70.9483047%" x2="77.5824648%" y2="33.0645401%" id="linearGradient-24">
            <stop stop-color="#740BFB" offset="0%"></stop>
            <stop stop-color="#12D5FF" offset="100%"></stop>
        </linearGradient>
        <path d="M26.6211111,0.0132426304 L61.502227,0.0443537415 L61.5320841,0.0445944996 C62.5154587,0.0604642086 63.3075208,0.85886576 63.3075208,1.84208617 L63.3075208,1.84208617 L63.3075208,4.17315193 L22.6571044,4.17315193 L22.1794147,4.17070295 L7.03506305,4.17070295 L7.01930428,4.17072859 C6.51273884,4.17238789 5.78831024,4.25631344 5.27411611,4.92553288 L5.27411611,4.92553288 L5.25956011,4.94479615 C4.81349496,5.54382486 4.84731079,6.31493414 5.08113252,6.81809524 L5.08113252,6.81809524 L5.09146111,6.84001641 C5.43543568,7.55982585 6.08932686,7.92426304 7.03506305,7.92426304 L7.03506305,7.92426304 L11.6514347,7.92426304 L11.6533785,7.92154195 L13.4615203,7.92154195 L13.510897,7.92204626 C13.5761351,7.92325079 13.6392786,7.92631293 13.7038687,7.92798186 L13.7038687,7.92798186 L13.7134127,7.92825397 L13.7134127,7.92825397 L13.7229907,7.92852608 L13.8210359,7.93125347 C17.0497694,8.04752739 19.6028673,10.7576984 19.544956,14.0363719 L19.544956,14.0363719 L19.54364,14.0767834 C19.5424345,14.1036584 19.5407669,14.130446 19.5398025,14.157415 L19.5398025,14.157415 L19.5374467,14.2136268 C19.4513413,16.0663457 18.5386142,17.6930104 17.1676279,18.7341043 L17.1676279,18.7341043 L17.1376498,18.7588175 C16.1462278,19.5701833 14.942331,19.9689796 13.488237,19.9689796 L13.488237,19.9689796 L1.82351178,19.9689796 L1.79339583,19.9687348 C0.801535184,19.9525976 0.00631479895,19.1407837 0.0182186511,18.1497959 L0.0182186511,18.1497959 L0.0457934808,15.8109751 L12.6089959,15.8109496 C13.1150757,15.8093041 13.8393281,15.7260453 14.3536117,15.0568707 L14.3536117,15.0568707 L14.3681707,15.0376318 C14.8143319,14.4393487 14.7809138,13.6681864 14.5470473,13.1642177 L14.5470473,13.1642177 L14.5367241,13.1422992 C14.1929214,12.4225742 13.5388544,12.0579592 12.5932524,12.0579592 L12.5932524,12.0579592 L7.97692601,12.0579592 L7.97480133,12.0608617 L6.16679515,12.0608617 L5.854197,12.023356 L5.76558136,12.0211476 C2.84675653,11.9268059 0.476378777,9.71257007 0.0780704259,6.87129252 L0.0780704259,6.87129252 L0.070159421,6.81272687 C0.0319509688,6.51946216 0.0140081489,6.21968537 0.0193480847,5.91496599 L0.0193480847,5.91496599 L0.0218995233,5.81568329 C0.132180396,2.54616561 2.81794004,-0.0424185941 6.06616702,0.0144671202 L6.06616702,0.0144671202 L6.0702977,0.0146258503 L6.0702977,0.0146258503 L6.07439448,0.0147845805 L6.09627576,0.014324347 C6.11080524,0.0138674729 6.12528115,0.0132426304 6.14007852,0.0132426304 L6.14007852,0.0132426304 L26.6211111,0.0132426304 Z" id="path-25"></path>
        <linearGradient x1="28.292684%" y1="42.3658287%" x2="28.292684%" y2="241.200787%" id="linearGradient-27">
            <stop stop-color="#740BFB" offset="0%"></stop>
            <stop stop-color="#12D5FF" offset="100%"></stop>
        </linearGradient>
        <path d="M6.14003331,0.0132426304 C6.11788246,0.0132426304 6.0963645,0.0146031746 6.07439448,0.0147845805 L6.07439448,0.0147845805 C6.07159172,0.0147845805 6.06892458,0.0144671202 6.06616702,0.0144671202 L6.06616702,0.0144671202 C2.78512967,-0.0430385488 0.0779348085,2.59873016 0.0193028789,5.91492063 L0.0193028789,5.91492063 C0.0136521532,6.24004535 0.0344468237,6.55941043 0.0780704259,6.87129252 L0.0780704259,6.87129252 C0.480402094,9.74122449 2.89488936,11.9714739 5.854197,12.023356 L5.854197,12.023356 L6.16674994,12.0608617 L7.95789436,12.0608617 L7.97480133,12.0608617 L7.9768808,12.0580045 L12.5932524,12.0580045 C13.5484059,12.0580045 14.2061052,12.4299773 14.5470473,13.1642177 L14.5470473,13.1642177 C14.7834285,13.6736054 14.8150274,14.4559637 14.3536569,15.0568707 L14.3536569,15.0568707 C13.8339258,15.7330612 13.0999643,15.8110204 12.5932524,15.8110204 L12.5932524,15.8110204 L7.95956698,15.8110204 L0.0457934808,15.8110204 L0.0182186511,18.1497959 C0.00619319534,19.1507937 0.817682608,19.9689796 1.82351178,19.9689796 L1.82351178,19.9689796 L13.488237,19.9689796 C14.9570188,19.9689796 16.1705234,19.5621315 17.1676279,18.7341043 L17.1676279,18.7341043 C18.5524625,17.6824943 19.4697335,16.033424 19.5398025,14.157415 L19.5398025,14.157415 C19.5412491,14.1169615 19.5442779,14.0769161 19.5449108,14.0363719 L19.5449108,14.0363719 C19.6034071,10.7246259 16.9979253,7.99283447 13.7229907,7.92857143 L13.7229907,7.92857143 C13.7165715,7.92839002 13.7101975,7.92811791 13.7038235,7.92793651 L13.7038235,7.92793651 C13.6230859,7.92589569 13.5446538,7.921678 13.4615203,7.9214966 L13.4615203,7.9214966 L11.6533785,7.9214966 L11.6514347,7.92430839 L11.5950178,7.92430839 L7.03506305,7.92430839 C6.07977397,7.92430839 5.42225553,7.5524263 5.08113252,6.81814059 L5.08113252,6.81814059 C4.84479657,6.30956916 4.81279086,5.52721088 5.27411611,4.92553288 L5.27411611,4.92553288 C5.79366643,4.2493424 6.52785391,4.17070295 7.03506305,4.17070295 L7.03506305,4.17070295 L11.6142755,4.17070295 L22.1794147,4.17070295 L22.6571044,4.17319728 L63.3075208,4.17319728 L63.3075208,1.84204082 C63.3075208,0.84893424 62.4993766,0.04430839 61.502227,0.04430839 L61.502227,0.04430839 L26.6210659,0.0132426304 L6.14003331,0.0132426304 Z" id="path-28"></path>
        <linearGradient x1="-1.53147711%" y1="57.461311%" x2="72.4021968%" y2="41.1214611%" id="linearGradient-30">
            <stop stop-color="#740BFB" offset="0%"></stop>
            <stop stop-color="#12D5FF" offset="100%"></stop>
        </linearGradient>
    </defs>
    <g id="PC端" stroke="none" stroke-width="1" fill="none" fill-rule="evenodd">
        <g id="仙工官网-首页-中文" transform="translate(-361.000000, -7659.000000)">
            <g id="编组" transform="translate(361.000000, 7659.000000)">
                <g transform="translate(22.000000, 7.666667)">
                    <mask id="mask-2" fill="white">
                        <use xlink:href="#path-1"></use>
                    </mask>
                    <g id="Clip-2"></g>
                    <polygon id="Fill-1" fill="url(#linearGradient-3)" mask="url(#mask-2)" points="-79.1276102 67.6212057 123.699422 67.6212057 123.699422 -63.2921596 -79.1276102 -63.2921596"></polygon>
                </g>
                <g transform="translate(22.000000, 7.666667)">
                    <mask id="mask-5" fill="white">
                        <use xlink:href="#path-4"></use>
                    </mask>
                    <g id="Clip-4"></g>
                    <path d="M0.0295607115,0.0100957447 L0.0295607115,2.44939362 C0.0295607115,3.48860993 0.831153906,4.33153546 1.81944161,4.33153546 L1.81944161,4.33153546 L19.3228368,4.33153546 L19.3228368,1.8917766 C19.3228368,0.852421986 18.5216922,0.0100957447 17.5329559,0.0100957447 L17.5329559,0.0100957447 L0.0295607115,0.0100957447 Z" id="Fill-3" fill="url(#linearGradient-6)" mask="url(#mask-5)"></path>
                </g>
                <g transform="translate(43.666667, 7.666667)">
                    <mask id="mask-8" fill="white">
                        <use xlink:href="#path-7"></use>
                    </mask>
                    <g id="Clip-6"></g>
                    <polygon id="Fill-5" fill="url(#linearGradient-9)" mask="url(#mask-8)" points="-102.385031 67.6212057 103.461417 67.6212057 103.461417 -63.2921596 -102.385031 -63.2921596"></polygon>
                </g>
                <g transform="translate(43.666667, 7.666667)">
                    <mask id="mask-11" fill="white">
                        <use xlink:href="#path-10"></use>
                    </mask>
                    <g id="Clip-8"></g>
                    <path d="M0.0413819444,0.0100957447 L0.0413819444,2.44939362 C0.0413819444,3.48860993 0.854361883,4.33153546 1.85786265,4.33153546 L1.85786265,4.33153546 L19.6219159,4.33153546 L19.6219159,1.8917766 C19.6219159,0.852421986 18.8088449,0.0100957447 17.8053897,0.0100957447 L17.8053897,0.0100957447 L0.0413819444,0.0100957447 Z" id="Fill-7" fill="url(#linearGradient-12)" mask="url(#mask-11)"></path>
                </g>
                <g transform="translate(22.000000, 15.666667)">
                    <mask id="mask-14" fill="white">
                        <use xlink:href="#path-13"></use>
                    </mask>
                    <g id="Clip-10"></g>
                    <polygon id="Fill-9" fill="url(#linearGradient-15)" mask="url(#mask-14)" points="-79.1276102 58.8813333 123.699422 58.8813333 123.699422 -70.6539965 -79.1276102 -70.6539965"></polygon>
                </g>
                <g transform="translate(22.000000, 15.666667)">
                    <mask id="mask-17" fill="white">
                        <use xlink:href="#path-16"></use>
                    </mask>
                    <g id="Clip-12"></g>
                    <path d="M0.0295607115,0.0307438596 L0.0295607115,2.44427368 C0.0295607115,3.47259649 0.831153906,4.30669474 1.81944161,4.30669474 L1.81944161,4.30669474 L19.3228368,4.30669474 L19.3228368,1.89257193 C19.3228368,0.864066667 18.5216922,0.0307438596 17.5329559,0.0307438596 L17.5329559,0.0307438596 L0.0295607115,0.0307438596 Z" id="Fill-11" fill="url(#linearGradient-18)" mask="url(#mask-17)"></path>
                </g>
                <g transform="translate(43.666667, 0.000000)">
                    <mask id="mask-20" fill="white">
                        <use xlink:href="#path-19"></use>
                    </mask>
                    <g id="Clip-14"></g>
                    <polygon id="Fill-13" fill="url(#linearGradient-21)" mask="url(#mask-20)" points="-101.257642 74.1113122 102.775785 74.1113122 102.775785 -54.3870136 -101.257642 -54.3870136"></polygon>
                </g>
                <g transform="translate(43.666667, 0.000000)">
                    <mask id="mask-23" fill="white">
                        <use xlink:href="#path-22"></use>
                    </mask>
                    <g id="Clip-16"></g>
                    <path d="M35.0301354,0.0125339367 L29.3078603,0.0125339367 L27.9336623,0.0125339367 C27.9046929,0.0125339367 27.8723843,0.0162895928 27.8431892,0.0168778281 L27.8431892,0.0168778281 L23.6626114,0.0168778281 C22.669032,0.0168778281 21.8635284,0.82158371 21.8635284,1.81475113 L21.8635284,1.81475113 L21.8635284,4.1459276 L21.8639345,4.1459276 L21.8639345,8.37538462 C21.8639345,8.37773756 21.864837,8.37963801 21.864837,8.38199095 L21.864837,8.38199095 L21.864837,8.54466063 L21.8719665,8.54466063 C21.8830218,13.5674661 21.8605953,13.6773303 21.858294,13.7207692 L21.858294,13.7207692 C21.8325284,14.2129412 21.8983639,15.0695023 21.6211237,15.3858824 L21.6211237,15.3858824 C21.1550408,15.918552 20.2776099,15.8739819 19.5445298,15.8739819 L19.5445298,15.8739819 L8.22267103,15.8421719 L0.0178238719,15.8421719 L0.0371368268,18.2341629 C0.0371368268,19.2271946 0.843001456,19.9736934 1.83725764,19.9736934 L1.83725764,19.9736934 L8.27447307,19.9736934 L18.6442213,19.9736934 L24.1835648,19.9736934 C25.177821,19.9736934 25.9828282,19.2271946 25.9828282,18.2341629 L25.9828282,18.2341629 L25.9828282,18.0024887 L25.9828282,15.9029864 L25.9828282,13.5612217 L25.9912664,13.2805882 L25.9855808,13.1188688 L25.991853,6.30968326 C25.9614396,5.76402715 26.0024571,4.95520362 26.29531,4.57746606 L26.29531,4.57746606 C26.6684381,4.09565611 27.3011179,4.17022624 27.3011179,4.17022624 L27.3011179,4.17022624 L29.7414993,4.17022624 L34.3696143,4.17022624 C34.8752707,4.17022624 35.6069971,4.24819005 36.1245662,4.92497738 L36.1245662,4.92497738 C36.5849185,5.52574661 36.5524294,6.30868778 36.3168384,6.81760181 L36.3168384,6.81760181 C35.9770116,7.55162896 35.3218603,7.92352941 34.3696143,7.92352941 L34.3696143,7.92352941 L33.4210684,7.96506787 C33.3333479,7.96665158 33.2459432,7.97081448 33.1589447,7.97642534 L33.1589447,7.97642534 L33.0070131,7.98723982 C30.0388646,8.25696833 27.6854818,10.7515385 27.6176157,13.8365611 L27.6176157,13.8365611 C27.617345,13.8457919 27.6166681,13.8547511 27.6163974,13.8638914 L27.6163974,13.8638914 C27.5581426,17.1802262 30.1629098,19.9152036 33.4347409,19.9726244 L33.4347409,19.9726244 C33.6476346,19.9764253 41.3198865,19.9688688 41.3198865,19.9688688 L41.3198865,19.9688688 L41.3222338,17.6110407 C41.3232256,16.6168778 40.5171805,15.8111765 39.5226987,15.8111765 L39.5226987,15.8111765 L39.1813377,15.8030769 L34.5605779,15.791086 C34.0550116,15.791086 33.3232853,15.7127149 32.8052649,15.0364253 L32.8052649,15.0364253 C32.3454993,14.4345701 32.3774017,13.6523529 32.6129927,13.1442986 L32.6129927,13.1442986 C32.9083726,12.5058371 33.4397948,12.10819 34.2027918,12.0568778 L34.2027918,12.0568778 C34.5086856,12.0363348 35.1851354,12.0330317 35.2226783,12.031629 L35.2226783,12.031629 C35.2756536,12.029276 35.3472649,12.0254299 35.4280815,12.0208597 L35.4280815,12.0208597 C35.6134047,12.0104072 35.8531019,11.9954299 36.067936,11.9816742 L36.067936,11.9816742 C37.036246,11.868914 37.9302373,11.5247511 38.6949491,11.0047511 L38.6949491,11.0047511 C40.2282533,9.9620362 41.2403333,8.20936652 41.2761164,6.17470588 L41.2761164,6.17470588 C41.2765226,6.14714932 41.2759811,6.0360181 41.2761164,6.00846154 L41.2761164,6.00846154 C41.226345,4.62628959 40.8555633,3.35253394 39.962294,2.18665158 L39.962294,2.18665158 C39.9415371,2.15963801 39.9224949,2.13221719 39.9012416,2.10538462 L39.9012416,2.10538462 C39.1157278,1.1179638 38.1059039,0.493484163 36.9219927,0.203665158 L36.9219927,0.203665158 C36.4007686,0.0760633484 35.8464236,0.0125339367 35.2618006,0.0125339367 L35.2618006,0.0125339367 L35.0301354,0.0125339367 Z" id="Fill-15" fill="url(#linearGradient-24)" mask="url(#mask-23)"></path>
                </g>
                <g>
                    <mask id="mask-26" fill="white">
                        <use xlink:href="#path-25"></use>
                    </mask>
                    <g id="Clip-18"></g>
                    <polygon id="Fill-17" fill="url(#linearGradient-27)" mask="url(#mask-26)" points="-57.8182251 74.2340136 146.586334 74.2340136 146.586334 -54.5556916 -57.8182251 -54.5556916"></polygon>
                </g>
                <g>
                    <mask id="mask-29" fill="white">
                        <use xlink:href="#path-28"></use>
                    </mask>
                    <g id="Clip-20"></g>
                    <path d="M6.14003331,0.0132426304 C6.11788246,0.0132426304 6.0963645,0.0146031746 6.07439448,0.0147845805 L6.07439448,0.0147845805 C6.07159172,0.0147845805 6.06892458,0.0144671202 6.06616702,0.0144671202 L6.06616702,0.0144671202 C2.78512967,-0.0430385488 0.0779348085,2.59873016 0.0193028789,5.91492063 L0.0193028789,5.91492063 C0.0136521532,6.24004535 0.0344468237,6.55941043 0.0780704259,6.87129252 L0.0780704259,6.87129252 C0.480402094,9.74122449 2.89488936,11.9714739 5.854197,12.023356 L5.854197,12.023356 L6.16674994,12.0608617 L7.95789436,12.0608617 L7.97480133,12.0608617 L7.9768808,12.0580045 L12.5932524,12.0580045 C13.5484059,12.0580045 14.2061052,12.4299773 14.5470473,13.1642177 L14.5470473,13.1642177 C14.7834285,13.6736054 14.8150274,14.4559637 14.3536569,15.0568707 L14.3536569,15.0568707 C13.8339258,15.7330612 13.0999643,15.8110204 12.5932524,15.8110204 L12.5932524,15.8110204 L7.95956698,15.8110204 L0.0457934808,15.8110204 L0.0182186511,18.1497959 C0.00619319534,19.1507937 0.817682608,19.9689796 1.82351178,19.9689796 L1.82351178,19.9689796 L13.488237,19.9689796 C14.9570188,19.9689796 16.1705234,19.5621315 17.1676279,18.7341043 L17.1676279,18.7341043 C18.5524625,17.6824943 19.4697335,16.033424 19.5398025,14.157415 L19.5398025,14.157415 C19.5412491,14.1169615 19.5442779,14.0769161 19.5449108,14.0363719 L19.5449108,14.0363719 C19.6034071,10.7246259 16.9979253,7.99283447 13.7229907,7.92857143 L13.7229907,7.92857143 C13.7165715,7.92839002 13.7101975,7.92811791 13.7038235,7.92793651 L13.7038235,7.92793651 C13.6230859,7.92589569 13.5446538,7.921678 13.4615203,7.9214966 L13.4615203,7.9214966 L11.6533785,7.9214966 L11.6514347,7.92430839 L11.5950178,7.92430839 L7.03506305,7.92430839 C6.07977397,7.92430839 5.42225553,7.5524263 5.08113252,6.81814059 L5.08113252,6.81814059 C4.84479657,6.30956916 4.81279086,5.52721088 5.27411611,4.92553288 L5.27411611,4.92553288 C5.79366643,4.2493424 6.52785391,4.17070295 7.03506305,4.17070295 L7.03506305,4.17070295 L11.6142755,4.17070295 L22.1794147,4.17070295 L22.6571044,4.17319728 L63.3075208,4.17319728 L63.3075208,1.84204082 C63.3075208,0.84893424 62.4993766,0.04430839 61.502227,0.04430839 L61.502227,0.04430839 L26.6210659,0.0132426304 L6.14003331,0.0132426304 Z" id="Fill-19" fill="url(#linearGradient-30)" mask="url(#mask-29)"></path>
                </g>
            </g>
        </g>
    </g>
</svg>